<mxfile host="Electron" modified="2022-12-02T16:33:12.414Z" agent="5.0 (Windows NT 10.0; Win64; x64) AppleWebKit/537.36 (KHTML, like Gecko) draw.io/20.3.0 Chrome/104.0.5112.114 Electron/20.1.3 Safari/537.36" etag="s5hMyG59CDCZADOF2WkP" compressed="false" version="20.3.0" type="device">
  <diagram id="_EAnTtMXLhPySvSflAWC" name="Page-1">
    <mxGraphModel dx="2272" dy="3057" grid="1" gridSize="10" guides="1" tooltips="1" connect="1" arrows="1" fold="1" page="1" pageScale="1" pageWidth="850" pageHeight="1100" math="1" shadow="0">
      <root>
        <mxCell id="0" />
        <mxCell id="1" parent="0" />
        <mxCell id="SyyEjhrEqgdI9i5laMnA-6" value="" style="group" parent="1" vertex="1" connectable="0">
          <mxGeometry x="1120" y="420" width="740" height="640" as="geometry" />
        </mxCell>
        <mxCell id="SyyEjhrEqgdI9i5laMnA-7" value="" style="rounded=1;whiteSpace=wrap;html=1;" parent="SyyEjhrEqgdI9i5laMnA-6" vertex="1">
          <mxGeometry y="30" width="740" height="610" as="geometry" />
        </mxCell>
        <mxCell id="SyyEjhrEqgdI9i5laMnA-8" value="Controller" style="text;html=1;strokeColor=none;fillColor=none;align=center;verticalAlign=middle;whiteSpace=wrap;rounded=0;fontStyle=1;fontSize=26;" parent="SyyEjhrEqgdI9i5laMnA-6" vertex="1">
          <mxGeometry x="340" width="60" height="30" as="geometry" />
        </mxCell>
        <mxCell id="SyyEjhrEqgdI9i5laMnA-9" value="" style="group" parent="1" vertex="1" connectable="0">
          <mxGeometry x="-340" y="510" width="740" height="640" as="geometry" />
        </mxCell>
        <mxCell id="SyyEjhrEqgdI9i5laMnA-10" value="" style="rounded=1;whiteSpace=wrap;html=1;" parent="SyyEjhrEqgdI9i5laMnA-9" vertex="1">
          <mxGeometry y="30" width="740" height="610" as="geometry" />
        </mxCell>
        <mxCell id="SyyEjhrEqgdI9i5laMnA-11" value="View" style="text;html=1;strokeColor=none;fillColor=none;align=center;verticalAlign=middle;whiteSpace=wrap;rounded=0;fontStyle=1;fontSize=26;" parent="SyyEjhrEqgdI9i5laMnA-9" vertex="1">
          <mxGeometry x="340" width="60" height="30" as="geometry" />
        </mxCell>
        <mxCell id="K7I75Bf16mPuxJ21bWz5-1" style="edgeStyle=orthogonalEdgeStyle;rounded=0;orthogonalLoop=1;jettySize=auto;html=1;exitX=0;exitY=0.5;exitDx=0;exitDy=0;" edge="1" parent="1" source="SyyEjhrEqgdI9i5laMnA-1">
          <mxGeometry relative="1" as="geometry">
            <mxPoint x="-100" y="-820" as="targetPoint" />
          </mxGeometry>
        </mxCell>
        <mxCell id="SyyEjhrEqgdI9i5laMnA-1" value="" style="rounded=1;whiteSpace=wrap;html=1;" parent="1" vertex="1">
          <mxGeometry x="-90" y="-1730" width="2850" height="1820" as="geometry" />
        </mxCell>
        <mxCell id="SyyEjhrEqgdI9i5laMnA-97" value="" style="rounded=0;whiteSpace=wrap;html=1;fontSize=24;fillColor=#fff2cc;strokeColor=#d6b656;" parent="1" vertex="1">
          <mxGeometry x="340" y="-450" width="770" height="460" as="geometry" />
        </mxCell>
        <mxCell id="SyyEjhrEqgdI9i5laMnA-2" value="Model" style="text;html=1;strokeColor=none;fillColor=none;align=center;verticalAlign=middle;whiteSpace=wrap;rounded=0;fontStyle=0;fontSize=80;" parent="1" vertex="1">
          <mxGeometry x="1320" y="-1680" width="60" height="30" as="geometry" />
        </mxCell>
        <mxCell id="SyyEjhrEqgdI9i5laMnA-12" value="Proof" style="swimlane;fontStyle=1;align=center;verticalAlign=top;childLayout=stackLayout;horizontal=1;startSize=26;horizontalStack=0;resizeParent=1;resizeParentMax=0;resizeLast=0;collapsible=1;marginBottom=0;fontSize=26;" parent="1" vertex="1">
          <mxGeometry x="1840" y="-290" width="450" height="214" as="geometry" />
        </mxCell>
        <mxCell id="SyyEjhrEqgdI9i5laMnA-13" value="+ steps: List&lt;Step&gt;" style="text;strokeColor=none;fillColor=none;align=left;verticalAlign=top;spacingLeft=4;spacingRight=4;overflow=hidden;rotatable=0;points=[[0,0.5],[1,0.5]];portConstraint=eastwest;fontSize=26;" parent="SyyEjhrEqgdI9i5laMnA-12" vertex="1">
          <mxGeometry y="26" width="450" height="54" as="geometry" />
        </mxCell>
        <mxCell id="SyyEjhrEqgdI9i5laMnA-14" value="" style="line;strokeWidth=1;fillColor=none;align=left;verticalAlign=middle;spacingTop=-1;spacingLeft=3;spacingRight=3;rotatable=0;labelPosition=right;points=[];portConstraint=eastwest;fontSize=26;" parent="SyyEjhrEqgdI9i5laMnA-12" vertex="1">
          <mxGeometry y="80" width="450" height="8" as="geometry" />
        </mxCell>
        <mxCell id="SyyEjhrEqgdI9i5laMnA-77" value="+ verifyProof() : errorOutput" style="text;strokeColor=none;fillColor=none;align=left;verticalAlign=top;spacingLeft=4;spacingRight=4;overflow=hidden;rotatable=0;points=[[0,0.5],[1,0.5]];portConstraint=eastwest;fontSize=26;" parent="SyyEjhrEqgdI9i5laMnA-12" vertex="1">
          <mxGeometry y="88" width="450" height="42" as="geometry" />
        </mxCell>
        <mxCell id="SyyEjhrEqgdI9i5laMnA-69" value="+ save(): void" style="text;strokeColor=none;fillColor=none;align=left;verticalAlign=top;spacingLeft=4;spacingRight=4;overflow=hidden;rotatable=0;points=[[0,0.5],[1,0.5]];portConstraint=eastwest;fontSize=26;" parent="SyyEjhrEqgdI9i5laMnA-12" vertex="1">
          <mxGeometry y="130" width="450" height="42" as="geometry" />
        </mxCell>
        <mxCell id="SyyEjhrEqgdI9i5laMnA-70" value="+ load(): void" style="text;strokeColor=none;fillColor=none;align=left;verticalAlign=top;spacingLeft=4;spacingRight=4;overflow=hidden;rotatable=0;points=[[0,0.5],[1,0.5]];portConstraint=eastwest;fontSize=26;" parent="SyyEjhrEqgdI9i5laMnA-12" vertex="1">
          <mxGeometry y="172" width="450" height="42" as="geometry" />
        </mxCell>
        <mxCell id="SyyEjhrEqgdI9i5laMnA-55" value="Step" style="swimlane;fontStyle=1;align=center;verticalAlign=top;childLayout=stackLayout;horizontal=1;startSize=26;horizontalStack=0;resizeParent=1;resizeParentMax=0;resizeLast=0;collapsible=1;marginBottom=0;fontSize=26;" parent="1" vertex="1">
          <mxGeometry x="1360" y="-350" width="320" height="160" as="geometry" />
        </mxCell>
        <mxCell id="SyyEjhrEqgdI9i5laMnA-60" value="+ level: Integer" style="text;strokeColor=none;fillColor=none;align=left;verticalAlign=top;spacingLeft=4;spacingRight=4;overflow=hidden;rotatable=0;points=[[0,0.5],[1,0.5]];portConstraint=eastwest;fontSize=26;" parent="SyyEjhrEqgdI9i5laMnA-55" vertex="1">
          <mxGeometry y="26" width="320" height="44" as="geometry" />
        </mxCell>
        <mxCell id="W281sDOfN9Owr19NoChG-3" value="+ strategy: VerifyStrategy" style="text;strokeColor=none;fillColor=none;align=left;verticalAlign=top;spacingLeft=4;spacingRight=4;overflow=hidden;rotatable=0;points=[[0,0.5],[1,0.5]];portConstraint=eastwest;fontSize=26;" parent="SyyEjhrEqgdI9i5laMnA-55" vertex="1">
          <mxGeometry y="70" width="320" height="44" as="geometry" />
        </mxCell>
        <mxCell id="SyyEjhrEqgdI9i5laMnA-57" value="" style="line;strokeWidth=1;fillColor=none;align=left;verticalAlign=middle;spacingTop=-1;spacingLeft=3;spacingRight=3;rotatable=0;labelPosition=right;points=[];portConstraint=eastwest;fontSize=26;" parent="SyyEjhrEqgdI9i5laMnA-55" vertex="1">
          <mxGeometry y="114" width="320" height="8" as="geometry" />
        </mxCell>
        <mxCell id="W281sDOfN9Owr19NoChG-4" value="+ setStrategy(): void" style="text;strokeColor=none;fillColor=none;align=left;verticalAlign=top;spacingLeft=4;spacingRight=4;overflow=hidden;rotatable=0;points=[[0,0.5],[1,0.5]];portConstraint=eastwest;fontSize=26;" parent="SyyEjhrEqgdI9i5laMnA-55" vertex="1">
          <mxGeometry y="122" width="320" height="38" as="geometry" />
        </mxCell>
        <mxCell id="SyyEjhrEqgdI9i5laMnA-71" value="Formula" style="swimlane;fontStyle=1;align=center;verticalAlign=top;childLayout=stackLayout;horizontal=1;startSize=26;horizontalStack=0;resizeParent=1;resizeParentMax=0;resizeLast=0;collapsible=1;marginBottom=0;fontSize=26;" parent="1" vertex="1">
          <mxGeometry x="880" y="-990" width="610" height="192" as="geometry" />
        </mxCell>
        <mxCell id="SyyEjhrEqgdI9i5laMnA-72" value="+ expression: String" style="text;strokeColor=none;fillColor=none;align=left;verticalAlign=top;spacingLeft=4;spacingRight=4;overflow=hidden;rotatable=0;points=[[0,0.5],[1,0.5]];portConstraint=eastwest;fontSize=26;fontStyle=0" parent="SyyEjhrEqgdI9i5laMnA-71" vertex="1">
          <mxGeometry y="26" width="610" height="54" as="geometry" />
        </mxCell>
        <mxCell id="SyyEjhrEqgdI9i5laMnA-73" value="" style="line;strokeWidth=1;fillColor=none;align=left;verticalAlign=middle;spacingTop=-1;spacingLeft=3;spacingRight=3;rotatable=0;labelPosition=right;points=[];portConstraint=eastwest;fontSize=26;" parent="SyyEjhrEqgdI9i5laMnA-71" vertex="1">
          <mxGeometry y="80" width="610" height="8" as="geometry" />
        </mxCell>
        <mxCell id="SyyEjhrEqgdI9i5laMnA-75" value="+ navigateExpression(): Expression" style="text;strokeColor=none;fillColor=none;align=left;verticalAlign=top;spacingLeft=4;spacingRight=4;overflow=hidden;rotatable=0;points=[[0,0.5],[1,0.5]];portConstraint=eastwest;fontSize=26;" parent="SyyEjhrEqgdI9i5laMnA-71" vertex="1">
          <mxGeometry y="88" width="610" height="52" as="geometry" />
        </mxCell>
        <mxCell id="W281sDOfN9Owr19NoChG-12" value="+ createExpression(String): void" style="text;strokeColor=none;fillColor=none;align=left;verticalAlign=top;spacingLeft=4;spacingRight=4;overflow=hidden;rotatable=0;points=[[0,0.5],[1,0.5]];portConstraint=eastwest;fontSize=26;" parent="SyyEjhrEqgdI9i5laMnA-71" vertex="1">
          <mxGeometry y="140" width="610" height="52" as="geometry" />
        </mxCell>
        <mxCell id="SyyEjhrEqgdI9i5laMnA-79" value="" style="endArrow=diamondThin;endFill=0;endSize=24;html=1;rounded=0;fontSize=26;entryX=0;entryY=0.091;entryDx=0;entryDy=0;exitX=1;exitY=0.25;exitDx=0;exitDy=0;entryPerimeter=0;" parent="1" source="SyyEjhrEqgdI9i5laMnA-83" target="SyyEjhrEqgdI9i5laMnA-55" edge="1">
          <mxGeometry width="160" relative="1" as="geometry">
            <mxPoint x="905" y="-390" as="sourcePoint" />
            <mxPoint x="1345" y="-261.9999999999998" as="targetPoint" />
          </mxGeometry>
        </mxCell>
        <mxCell id="SyyEjhrEqgdI9i5laMnA-83" value="VerifyStrategy &lt;&lt;Interface&gt;&gt;" style="swimlane;fontStyle=1;childLayout=stackLayout;horizontal=1;startSize=26;fillColor=none;horizontalStack=0;resizeParent=1;resizeParentMax=0;resizeLast=0;collapsible=1;marginBottom=0;fontSize=24;" parent="1" vertex="1">
          <mxGeometry x="645" y="-360" width="340" height="70" as="geometry" />
        </mxCell>
        <mxCell id="SyyEjhrEqgdI9i5laMnA-84" value="+ verifyStep(steps): errorOutput" style="text;strokeColor=none;fillColor=none;align=left;verticalAlign=top;spacingLeft=4;spacingRight=4;overflow=hidden;rotatable=0;points=[[0,0.5],[1,0.5]];portConstraint=eastwest;fontSize=22;" parent="SyyEjhrEqgdI9i5laMnA-83" vertex="1">
          <mxGeometry y="26" width="340" height="44" as="geometry" />
        </mxCell>
        <mxCell id="SyyEjhrEqgdI9i5laMnA-87" value="DisjunctionEliminationStrategy" style="swimlane;fontStyle=1;childLayout=stackLayout;horizontal=1;startSize=26;fillColor=none;horizontalStack=0;resizeParent=1;resizeParentMax=0;resizeLast=0;collapsible=1;marginBottom=0;fontSize=24;" parent="1" vertex="1">
          <mxGeometry x="595" y="-170" width="380" height="52" as="geometry" />
        </mxCell>
        <mxCell id="SyyEjhrEqgdI9i5laMnA-92" value="DisjunctionIntroductionStrategy" style="swimlane;fontStyle=1;childLayout=stackLayout;horizontal=1;startSize=26;fillColor=none;horizontalStack=0;resizeParent=1;resizeParentMax=0;resizeLast=0;collapsible=1;marginBottom=0;fontSize=24;" parent="1" vertex="1">
          <mxGeometry x="425" y="-230" width="380" height="52" as="geometry" />
        </mxCell>
        <mxCell id="SyyEjhrEqgdI9i5laMnA-93" value="ConjuctionIntroductionStrategy" style="swimlane;fontStyle=1;childLayout=stackLayout;horizontal=1;startSize=26;fillColor=none;horizontalStack=0;resizeParent=1;resizeParentMax=0;resizeLast=0;collapsible=1;marginBottom=0;fontSize=24;" parent="1" vertex="1">
          <mxGeometry x="715" y="-110" width="380" height="52" as="geometry" />
        </mxCell>
        <mxCell id="SyyEjhrEqgdI9i5laMnA-94" value="" style="endArrow=block;dashed=1;endFill=0;endSize=12;html=1;rounded=0;fontSize=24;entryX=0.482;entryY=0.036;entryDx=0;entryDy=0;entryPerimeter=0;exitX=0.106;exitY=1.057;exitDx=0;exitDy=0;exitPerimeter=0;" parent="1" source="SyyEjhrEqgdI9i5laMnA-84" target="SyyEjhrEqgdI9i5laMnA-92" edge="1">
          <mxGeometry width="160" relative="1" as="geometry">
            <mxPoint x="445" y="-520" as="sourcePoint" />
            <mxPoint x="605" y="-520" as="targetPoint" />
          </mxGeometry>
        </mxCell>
        <mxCell id="SyyEjhrEqgdI9i5laMnA-95" value="" style="endArrow=block;dashed=1;endFill=0;endSize=12;html=1;rounded=0;fontSize=24;entryX=0.707;entryY=-0.014;entryDx=0;entryDy=0;entryPerimeter=0;exitX=0.511;exitY=1.105;exitDx=0;exitDy=0;exitPerimeter=0;" parent="1" source="SyyEjhrEqgdI9i5laMnA-84" target="SyyEjhrEqgdI9i5laMnA-87" edge="1">
          <mxGeometry width="160" relative="1" as="geometry">
            <mxPoint x="754.8800000000001" y="-509.99199999999996" as="sourcePoint" />
            <mxPoint x="608.1599999999999" y="-468.12799999999993" as="targetPoint" />
          </mxGeometry>
        </mxCell>
        <mxCell id="SyyEjhrEqgdI9i5laMnA-96" value="" style="endArrow=block;dashed=1;endFill=0;endSize=12;html=1;rounded=0;fontSize=24;entryX=0.861;entryY=-0.034;entryDx=0;entryDy=0;entryPerimeter=0;exitX=0.935;exitY=1.033;exitDx=0;exitDy=0;exitPerimeter=0;" parent="1" source="SyyEjhrEqgdI9i5laMnA-84" target="SyyEjhrEqgdI9i5laMnA-93" edge="1">
          <mxGeometry width="160" relative="1" as="geometry">
            <mxPoint x="798.7399999999998" y="-513.3799999999999" as="sourcePoint" />
            <mxPoint x="873.6599999999999" y="-400.72800000000007" as="targetPoint" />
          </mxGeometry>
        </mxCell>
        <mxCell id="SyyEjhrEqgdI9i5laMnA-98" value="&lt;b&gt;Strategy Pattern&lt;/b&gt;" style="text;html=1;strokeColor=none;fillColor=none;align=center;verticalAlign=middle;whiteSpace=wrap;rounded=0;fontSize=24;" parent="1" vertex="1">
          <mxGeometry x="355" y="-440" width="90" height="54" as="geometry" />
        </mxCell>
        <mxCell id="SyyEjhrEqgdI9i5laMnA-99" value="ETC." style="text;html=1;strokeColor=none;fillColor=none;align=center;verticalAlign=middle;whiteSpace=wrap;rounded=0;fontSize=24;" parent="1" vertex="1">
          <mxGeometry x="1035" y="-42" width="60" height="30" as="geometry" />
        </mxCell>
        <mxCell id="tcB_iO83I7PVbcOzApR5-6" value="" style="endArrow=diamondThin;endFill=1;endSize=24;html=1;rounded=0;entryX=0.5;entryY=0;entryDx=0;entryDy=0;exitX=0.5;exitY=1;exitDx=0;exitDy=0;" parent="1" source="W281sDOfN9Owr19NoChG-7" target="SyyEjhrEqgdI9i5laMnA-71" edge="1">
          <mxGeometry width="160" relative="1" as="geometry">
            <mxPoint x="834.7220678154526" y="-1126" as="sourcePoint" />
            <mxPoint x="640" y="-1130" as="targetPoint" />
          </mxGeometry>
        </mxCell>
        <mxCell id="W281sDOfN9Owr19NoChG-7" value="&lt;span style=&quot;font-size: 29px;&quot;&gt;&lt;b&gt;FOLParser (ANTLR)&lt;/b&gt;&lt;/span&gt;" style="html=1;fillColor=#dae8fc;strokeColor=#6c8ebf;" parent="1" vertex="1">
          <mxGeometry x="590" y="-1334" width="430" height="190" as="geometry" />
        </mxCell>
        <mxCell id="W281sDOfN9Owr19NoChG-15" value="Formula" style="swimlane;fontStyle=1;align=center;verticalAlign=top;childLayout=stackLayout;horizontal=1;startSize=26;horizontalStack=0;resizeParent=1;resizeParentMax=0;resizeLast=0;collapsible=1;marginBottom=0;fontSize=26;" parent="1" vertex="1">
          <mxGeometry x="1230" y="-550" width="610" height="140" as="geometry" />
        </mxCell>
        <mxCell id="W281sDOfN9Owr19NoChG-16" value="!placeholder" style="text;strokeColor=none;fillColor=none;align=left;verticalAlign=top;spacingLeft=4;spacingRight=4;overflow=hidden;rotatable=0;points=[[0,0.5],[1,0.5]];portConstraint=eastwest;fontSize=26;fontStyle=2" parent="W281sDOfN9Owr19NoChG-15" vertex="1">
          <mxGeometry y="26" width="610" height="54" as="geometry" />
        </mxCell>
        <mxCell id="W281sDOfN9Owr19NoChG-17" value="" style="line;strokeWidth=1;fillColor=none;align=left;verticalAlign=middle;spacingTop=-1;spacingLeft=3;spacingRight=3;rotatable=0;labelPosition=right;points=[];portConstraint=eastwest;fontSize=26;" parent="W281sDOfN9Owr19NoChG-15" vertex="1">
          <mxGeometry y="80" width="610" height="8" as="geometry" />
        </mxCell>
        <mxCell id="W281sDOfN9Owr19NoChG-18" value="!placeholder" style="text;strokeColor=none;fillColor=none;align=left;verticalAlign=top;spacingLeft=4;spacingRight=4;overflow=hidden;rotatable=0;points=[[0,0.5],[1,0.5]];portConstraint=eastwest;fontSize=26;fontStyle=2" parent="W281sDOfN9Owr19NoChG-15" vertex="1">
          <mxGeometry y="88" width="610" height="52" as="geometry" />
        </mxCell>
        <mxCell id="W281sDOfN9Owr19NoChG-22" value="Justification" style="swimlane;fontStyle=1;align=center;verticalAlign=top;childLayout=stackLayout;horizontal=1;startSize=26;horizontalStack=0;resizeParent=1;resizeParentMax=0;resizeLast=0;collapsible=1;marginBottom=0;fontSize=26;" parent="1" vertex="1">
          <mxGeometry x="1620" y="-986" width="610" height="140" as="geometry" />
        </mxCell>
        <mxCell id="W281sDOfN9Owr19NoChG-23" value="+ justification: String" style="text;strokeColor=none;fillColor=none;align=left;verticalAlign=top;spacingLeft=4;spacingRight=4;overflow=hidden;rotatable=0;points=[[0,0.5],[1,0.5]];portConstraint=eastwest;fontSize=26;fontStyle=0" parent="W281sDOfN9Owr19NoChG-22" vertex="1">
          <mxGeometry y="26" width="610" height="54" as="geometry" />
        </mxCell>
        <mxCell id="W281sDOfN9Owr19NoChG-24" value="" style="line;strokeWidth=1;fillColor=none;align=left;verticalAlign=middle;spacingTop=-1;spacingLeft=3;spacingRight=3;rotatable=0;labelPosition=right;points=[];portConstraint=eastwest;fontSize=26;" parent="W281sDOfN9Owr19NoChG-22" vertex="1">
          <mxGeometry y="80" width="610" height="8" as="geometry" />
        </mxCell>
        <mxCell id="W281sDOfN9Owr19NoChG-26" value="+ createJustification(String): void" style="text;strokeColor=none;fillColor=none;align=left;verticalAlign=top;spacingLeft=4;spacingRight=4;overflow=hidden;rotatable=0;points=[[0,0.5],[1,0.5]];portConstraint=eastwest;fontSize=26;" parent="W281sDOfN9Owr19NoChG-22" vertex="1">
          <mxGeometry y="88" width="610" height="52" as="geometry" />
        </mxCell>
        <mxCell id="W281sDOfN9Owr19NoChG-31" value="" style="endArrow=diamondThin;endFill=1;endSize=24;html=1;rounded=0;fontSize=29;entryX=0.467;entryY=-0.014;entryDx=0;entryDy=0;entryPerimeter=0;exitX=0.411;exitY=1.022;exitDx=0;exitDy=0;exitPerimeter=0;" parent="1" source="W281sDOfN9Owr19NoChG-12" target="W281sDOfN9Owr19NoChG-15" edge="1">
          <mxGeometry width="160" relative="1" as="geometry">
            <mxPoint x="1174.63" y="-745.4279999999999" as="sourcePoint" />
            <mxPoint x="1250" y="-670" as="targetPoint" />
          </mxGeometry>
        </mxCell>
        <mxCell id="W281sDOfN9Owr19NoChG-32" value="" style="endArrow=diamondThin;endFill=1;endSize=24;html=1;rounded=0;fontSize=29;exitX=0.528;exitY=1.011;exitDx=0;exitDy=0;exitPerimeter=0;entryX=0.474;entryY=-0.009;entryDx=0;entryDy=0;entryPerimeter=0;" parent="1" source="W281sDOfN9Owr19NoChG-26" target="W281sDOfN9Owr19NoChG-15" edge="1">
          <mxGeometry width="160" relative="1" as="geometry">
            <mxPoint x="1940.25" y="-791.712" as="sourcePoint" />
            <mxPoint x="1790" y="-650" as="targetPoint" />
          </mxGeometry>
        </mxCell>
        <mxCell id="W281sDOfN9Owr19NoChG-33" value="" style="endArrow=diamondThin;endFill=1;endSize=24;html=1;rounded=0;fontSize=29;entryX=0.5;entryY=0;entryDx=0;entryDy=0;exitX=0.475;exitY=1.071;exitDx=0;exitDy=0;exitPerimeter=0;" parent="1" source="W281sDOfN9Owr19NoChG-18" target="SyyEjhrEqgdI9i5laMnA-55" edge="1">
          <mxGeometry width="160" relative="1" as="geometry">
            <mxPoint x="840" y="-460" as="sourcePoint" />
            <mxPoint x="1000" y="-460" as="targetPoint" />
          </mxGeometry>
        </mxCell>
        <mxCell id="W281sDOfN9Owr19NoChG-34" value="&lt;&lt;Inference&gt;&gt; Interface" style="swimlane;fontStyle=1;align=center;verticalAlign=top;childLayout=stackLayout;horizontal=1;startSize=26;horizontalStack=0;resizeParent=1;resizeParentMax=0;resizeLast=0;collapsible=1;marginBottom=0;fontSize=29;fillColor=#f8cecc;strokeColor=#b85450;" parent="1" vertex="1">
          <mxGeometry x="555" y="-670" width="465" height="104" as="geometry" />
        </mxCell>
        <mxCell id="W281sDOfN9Owr19NoChG-36" value="" style="line;strokeWidth=1;fillColor=none;align=left;verticalAlign=middle;spacingTop=-1;spacingLeft=3;spacingRight=3;rotatable=0;labelPosition=right;points=[];portConstraint=eastwest;strokeColor=inherit;fontSize=29;" parent="W281sDOfN9Owr19NoChG-34" vertex="1">
          <mxGeometry y="26" width="465" height="8" as="geometry" />
        </mxCell>
        <mxCell id="W281sDOfN9Owr19NoChG-37" value="+ verify(): void" style="text;strokeColor=none;fillColor=none;align=left;verticalAlign=top;spacingLeft=4;spacingRight=4;overflow=hidden;rotatable=0;points=[[0,0.5],[1,0.5]];portConstraint=eastwest;fontSize=29;" parent="W281sDOfN9Owr19NoChG-34" vertex="1">
          <mxGeometry y="34" width="465" height="70" as="geometry" />
        </mxCell>
        <mxCell id="W281sDOfN9Owr19NoChG-38" value="" style="endArrow=block;dashed=1;endFill=0;endSize=12;html=1;rounded=0;fontSize=29;entryX=-0.005;entryY=0.11;entryDx=0;entryDy=0;entryPerimeter=0;exitX=1;exitY=0;exitDx=0;exitDy=0;" parent="1" source="W281sDOfN9Owr19NoChG-34" target="W281sDOfN9Owr19NoChG-15" edge="1">
          <mxGeometry width="160" relative="1" as="geometry">
            <mxPoint x="2180" y="-490" as="sourcePoint" />
            <mxPoint x="2340" y="-490" as="targetPoint" />
          </mxGeometry>
        </mxCell>
        <mxCell id="W281sDOfN9Owr19NoChG-43" value="&lt;&lt;SyntaticallyConstrained&gt;&gt; Interface" style="swimlane;fontStyle=1;align=center;verticalAlign=top;childLayout=stackLayout;horizontal=1;startSize=26;horizontalStack=0;resizeParent=1;resizeParentMax=0;resizeLast=0;collapsible=1;marginBottom=0;fontSize=29;fillColor=#f8cecc;strokeColor=#b85450;" parent="1" vertex="1">
          <mxGeometry x="1227.5" y="-1322" width="615" height="100" as="geometry" />
        </mxCell>
        <mxCell id="W281sDOfN9Owr19NoChG-44" value="" style="line;strokeWidth=1;fillColor=none;align=left;verticalAlign=middle;spacingTop=-1;spacingLeft=3;spacingRight=3;rotatable=0;labelPosition=right;points=[];portConstraint=eastwest;strokeColor=inherit;fontSize=29;" parent="W281sDOfN9Owr19NoChG-43" vertex="1">
          <mxGeometry y="26" width="615" height="8" as="geometry" />
        </mxCell>
        <mxCell id="W281sDOfN9Owr19NoChG-45" value="+ checkSyntax(): void" style="text;strokeColor=none;fillColor=none;align=left;verticalAlign=top;spacingLeft=4;spacingRight=4;overflow=hidden;rotatable=0;points=[[0,0.5],[1,0.5]];portConstraint=eastwest;fontSize=29;" parent="W281sDOfN9Owr19NoChG-43" vertex="1">
          <mxGeometry y="34" width="615" height="66" as="geometry" />
        </mxCell>
        <mxCell id="W281sDOfN9Owr19NoChG-48" value="" style="endArrow=block;dashed=1;endFill=0;endSize=12;html=1;rounded=0;fontSize=29;entryX=0.373;entryY=-0.002;entryDx=0;entryDy=0;entryPerimeter=0;" parent="1" source="W281sDOfN9Owr19NoChG-45" target="W281sDOfN9Owr19NoChG-22" edge="1">
          <mxGeometry width="160" relative="1" as="geometry">
            <mxPoint x="1580" y="-1100" as="sourcePoint" />
            <mxPoint x="1840" y="-1000" as="targetPoint" />
          </mxGeometry>
        </mxCell>
        <mxCell id="W281sDOfN9Owr19NoChG-49" value="" style="endArrow=block;dashed=1;endFill=0;endSize=12;html=1;rounded=0;fontSize=29;entryX=0.621;entryY=-0.013;entryDx=0;entryDy=0;entryPerimeter=0;exitX=0.379;exitY=1.056;exitDx=0;exitDy=0;exitPerimeter=0;" parent="1" source="W281sDOfN9Owr19NoChG-45" target="SyyEjhrEqgdI9i5laMnA-71" edge="1">
          <mxGeometry width="160" relative="1" as="geometry">
            <mxPoint x="1300" y="-1100" as="sourcePoint" />
            <mxPoint x="1460" y="-1100" as="targetPoint" />
          </mxGeometry>
        </mxCell>
        <mxCell id="W281sDOfN9Owr19NoChG-50" value="&lt;span style=&quot;font-size: 29px;&quot;&gt;&lt;b&gt;JustificationSyntaxChecker&lt;br&gt;(REGEX)&lt;br&gt;&lt;/b&gt;&lt;/span&gt;" style="html=1;fillColor=#dae8fc;strokeColor=#6c8ebf;" parent="1" vertex="1">
          <mxGeometry x="2060" y="-1350" width="430" height="190" as="geometry" />
        </mxCell>
        <mxCell id="W281sDOfN9Owr19NoChG-51" value="" style="endArrow=diamondThin;endFill=1;endSize=24;html=1;rounded=0;exitX=0.41;exitY=1.024;exitDx=0;exitDy=0;exitPerimeter=0;entryX=0.616;entryY=0.007;entryDx=0;entryDy=0;entryPerimeter=0;" parent="1" source="W281sDOfN9Owr19NoChG-50" target="W281sDOfN9Owr19NoChG-22" edge="1">
          <mxGeometry width="160" relative="1" as="geometry">
            <mxPoint x="815" y="-1134" as="sourcePoint" />
            <mxPoint x="2030" y="-970" as="targetPoint" />
          </mxGeometry>
        </mxCell>
        <mxCell id="W281sDOfN9Owr19NoChG-52" value="" style="endArrow=diamondThin;endFill=0;endSize=24;html=1;rounded=0;fontSize=29;entryX=-0.004;entryY=-0.074;entryDx=0;entryDy=0;entryPerimeter=0;exitX=1;exitY=0.071;exitDx=0;exitDy=0;exitPerimeter=0;" parent="1" source="SyyEjhrEqgdI9i5laMnA-55" target="SyyEjhrEqgdI9i5laMnA-13" edge="1">
          <mxGeometry width="160" relative="1" as="geometry">
            <mxPoint x="1490" y="50" as="sourcePoint" />
            <mxPoint x="1650" y="50" as="targetPoint" />
          </mxGeometry>
        </mxCell>
        <mxCell id="W281sDOfN9Owr19NoChG-61" value="&lt;font style=&quot;font-size: 32px; line-height: 1.4;&quot;&gt;«interface»&lt;br style=&quot;font-size: 32px;&quot;&gt;&lt;b style=&quot;font-size: 32px;&quot;&gt;ExpressionParser&lt;/b&gt;&lt;/font&gt;" style="html=1;fontSize=32;fillColor=#f8cecc;strokeColor=#b85450;" parent="1" vertex="1">
          <mxGeometry x="657.5" y="-1570" width="295" height="100" as="geometry" />
        </mxCell>
        <mxCell id="W281sDOfN9Owr19NoChG-63" value="" style="endArrow=block;dashed=1;endFill=0;endSize=12;html=1;rounded=0;fontSize=40;entryX=0.5;entryY=0;entryDx=0;entryDy=0;exitX=0.5;exitY=1;exitDx=0;exitDy=0;" parent="1" source="W281sDOfN9Owr19NoChG-61" target="W281sDOfN9Owr19NoChG-7" edge="1">
          <mxGeometry width="160" relative="1" as="geometry">
            <mxPoint x="170" y="-1340" as="sourcePoint" />
            <mxPoint x="330" y="-1340" as="targetPoint" />
          </mxGeometry>
        </mxCell>
        <mxCell id="W281sDOfN9Owr19NoChG-65" value="&lt;font style=&quot;font-size: 32px; line-height: 1.4;&quot;&gt;«interface»&lt;br style=&quot;font-size: 32px;&quot;&gt;&lt;b style=&quot;font-size: 32px;&quot;&gt;JustificationParser&lt;/b&gt;&lt;/font&gt;" style="html=1;fontSize=32;fillColor=#f8cecc;strokeColor=#b85450;" parent="1" vertex="1">
          <mxGeometry x="2115" y="-1600" width="320" height="110" as="geometry" />
        </mxCell>
        <mxCell id="W281sDOfN9Owr19NoChG-66" value="" style="endArrow=block;dashed=1;endFill=0;endSize=12;html=1;rounded=0;fontSize=40;entryX=0.5;entryY=0;entryDx=0;entryDy=0;exitX=0.5;exitY=1;exitDx=0;exitDy=0;" parent="1" source="W281sDOfN9Owr19NoChG-65" target="W281sDOfN9Owr19NoChG-50" edge="1">
          <mxGeometry width="160" relative="1" as="geometry">
            <mxPoint x="2380" y="-1470" as="sourcePoint" />
            <mxPoint x="2380" y="-1334" as="targetPoint" />
          </mxGeometry>
        </mxCell>
      </root>
    </mxGraphModel>
  </diagram>
</mxfile>
